<?xml version="1.0" encoding="UTF-8" standalone="no"?>
<!-- Created with Inkscape (http://www.inkscape.org/) -->

<svg
   width="48"
   height="48"
   viewBox="0 0 48 48"
   version="1.1"
   id="svg5"
   inkscape:version="1.1 (c68e22c387, 2021-05-23)"
   sodipodi:docname="ui.svg"
   xmlns:inkscape="http://www.inkscape.org/namespaces/inkscape"
   xmlns:sodipodi="http://sodipodi.sourceforge.net/DTD/sodipodi-0.dtd"
   xmlns="http://www.w3.org/2000/svg"
   xmlns:svg="http://www.w3.org/2000/svg">
  <sodipodi:namedview
     id="namedview7"
     pagecolor="#ffffff"
     bordercolor="#666666"
     borderopacity="1.0"
     inkscape:pageshadow="2"
     inkscape:pageopacity="0.0"
     inkscape:pagecheckerboard="true"
     inkscape:document-units="px"
     showgrid="false"
     units="px"
     inkscape:zoom="1"
     inkscape:cx="89"
     inkscape:cy="173.5"
     inkscape:window-width="1920"
     inkscape:window-height="1017"
     inkscape:window-x="311"
     inkscape:window-y="1432"
     inkscape:window-maximized="1"
     inkscape:current-layer="layer2"
     inkscape:snap-global="false" />
  <defs
     id="defs2">
    <rect
       x="116.125"
       y="59.5"
       width="73.5"
       height="78.875"
       id="rect7830" />
    <rect
       x="116.125"
       y="59.5"
       width="73.5"
       height="78.875"
       id="rect11570" />
    <rect
       x="116.125"
       y="59.5"
       width="73.5"
       height="78.875"
       id="rect11576" />
    <rect
       x="116.125"
       y="59.5"
       width="73.5"
       height="78.875"
       id="rect17440" />
    <rect
       x="116.125"
       y="59.5"
       width="73.5"
       height="78.875"
       id="rect17446" />
    <rect
       x="116.125"
       y="59.5"
       width="73.5"
       height="78.875"
       id="rect22385" />
    <rect
       x="116.125"
       y="59.5"
       width="73.5"
       height="78.875"
       id="rect22387" />
    <rect
       x="116.125"
       y="59.5"
       width="73.5"
       height="78.875"
       id="rect22389" />
  </defs>
  <g
     inkscape:groupmode="layer"
     id="layer2"
     inkscape:label="Framing"
     style="display:inline">
    <rect
       style="fill:#000000;fill-opacity:1;stroke:none;stroke-width:1;stroke-linejoin:round;stroke-dashoffset:3.6;stroke-opacity:0.5"
       id="rect1040"
       width="48"
       height="48"
       x="128"
       y="0"
       inkscape:export-filename="C:\Omnipocket\Development\NET\game-jam-tools\Graphics\UI\star_full.png"
       inkscape:export-xdpi="96"
       inkscape:export-ydpi="96" />
    <rect
       style="fill:#000000;fill-opacity:1;stroke:none;stroke-width:0.999998;stroke-linejoin:round;stroke-dashoffset:3.6;stroke-opacity:0.5"
       id="rect2093"
       width="48"
       height="48"
       x="64"
       y="0"
       inkscape:export-filename="C:\Omnipocket\Development\NET\game-jam-tools\Graphics\UI\star_empty.png"
       inkscape:export-xdpi="96"
       inkscape:export-ydpi="96" />
    <rect
       style="fill:#000000;fill-opacity:1;stroke:none;stroke-width:0.999998;stroke-linejoin:round;stroke-dashoffset:3.6;stroke-opacity:0.5"
       id="rect910"
       width="48"
       height="48"
       x="128"
       y="64"
       inkscape:export-filename="C:\Omnipocket\Development\NET\game-jam-tools\Graphics\UI\menu_ranking.png"
       inkscape:export-xdpi="96"
       inkscape:export-ydpi="96" />
    <rect
       style="fill:#000000;fill-opacity:1;stroke:none;stroke-width:0.999998;stroke-linejoin:round;stroke-dashoffset:3.6;stroke-opacity:0.5"
       id="rect912"
       width="48"
       height="48"
       x="192"
       y="64"
       inkscape:export-filename="C:\Omnipocket\Development\NET\game-jam-tools\Graphics\UI\menu_awards.png"
       inkscape:export-xdpi="96"
       inkscape:export-ydpi="96" />
    <rect
       style="display:inline;fill:#000000;fill-opacity:1;fill-rule:evenodd;stroke-width:0.197531"
       id="rect35"
       width="48"
       height="48"
       x="64"
       y="64"
       inkscape:export-filename="C:\Omnipocket\Development\NET\game-jam-tools\Graphics\UI\menu_jam.png"
       inkscape:export-xdpi="96"
       inkscape:export-ydpi="96" />
    <rect
       style="fill:#000000;fill-opacity:1;stroke:none;stroke-width:0.999998;stroke-linejoin:round;stroke-dashoffset:3.6;stroke-opacity:0.5"
       id="rect955"
       width="48"
       height="48"
       x="256"
       y="64"
       inkscape:export-filename="C:\Omnipocket\Development\NET\game-jam-tools\Graphics\UI\menu_export.png"
       inkscape:export-xdpi="96"
       inkscape:export-ydpi="96" />
    <rect
       style="fill:#000000;fill-opacity:1;stroke:none;stroke-width:0.999998;stroke-linejoin:round;stroke-dashoffset:3.6;stroke-opacity:0.5"
       id="rect852"
       width="48"
       height="48"
       x="128"
       y="128"
       inkscape:export-filename="C:\Omnipocket\Development\NET\game-jam-tools\Graphics\UI\menu_summary.png"
       inkscape:export-xdpi="96"
       inkscape:export-ydpi="96" />
    <rect
       style="fill:#000000;fill-opacity:1;stroke:none;stroke-width:0.999998;stroke-linejoin:round;stroke-dashoffset:3.6;stroke-opacity:0.5"
       id="rect1174"
       width="48"
       height="48"
       x="192"
       y="128"
       inkscape:export-filename="C:\Omnipocket\Development\NET\game-jam-tools\Graphics\UI\menu_files.png"
       inkscape:export-xdpi="96"
       inkscape:export-ydpi="96" />
    <rect
       style="display:inline;fill:#000000;fill-opacity:1;fill-rule:evenodd;stroke-width:0.197531"
       id="rect866"
       width="48"
       height="48"
       x="128"
       y="192"
       inkscape:export-filename="C:\Omnipocket\Development\NET\game-jam-tools\Graphics\UI\menu_save.png"
       inkscape:export-xdpi="96"
       inkscape:export-ydpi="96" />
    <rect
       style="display:inline;fill:#000000;fill-opacity:1;fill-rule:evenodd;stroke-width:0.197531"
       id="rect3219"
       width="48"
       height="48"
       x="192"
       y="192"
       inkscape:export-filename="C:\Omnipocket\Development\NET\game-jam-tools\Graphics\UI\menu_save_modified.png"
       inkscape:export-xdpi="96"
       inkscape:export-ydpi="96" />
    <rect
       style="fill:#000000;fill-opacity:1;stroke:none;stroke-width:1;stroke-linejoin:round;stroke-dashoffset:3.6;stroke-opacity:0.5"
       id="rect875"
       width="48"
       height="48"
       x="192"
       y="0"
       inkscape:export-filename="C:\Omnipocket\Development\NET\game-jam-tools\Graphics\UI\icon_check.png"
       inkscape:export-xdpi="96"
       inkscape:export-ydpi="96" />
    <rect
       style="fill:#000000;fill-opacity:1;stroke:none;stroke-width:1;stroke-linejoin:round;stroke-dashoffset:3.6;stroke-opacity:0.5"
       id="rect3438"
       width="48"
       height="48"
       x="256"
       y="0"
       inkscape:export-filename="C:\Omnipocket\Development\NET\game-jam-tools\Graphics\UI\icon_cross.png"
       inkscape:export-xdpi="96"
       inkscape:export-ydpi="96" />
    <rect
       style="fill:#000000;fill-opacity:1;stroke:none;stroke-width:1;stroke-linejoin:round;stroke-dashoffset:3.6;stroke-opacity:0.5"
       id="rect3998"
       width="48"
       height="48"
       x="320"
       y="0"
       inkscape:export-filename="C:\Omnipocket\Development\NET\game-jam-tools\Graphics\UI\icon_nil.png"
       inkscape:export-xdpi="96"
       inkscape:export-ydpi="96" />
    <rect
       style="display:inline;fill:#000000;fill-opacity:1;fill-rule:evenodd;stroke-width:0.197531"
       id="rect882"
       width="48"
       height="48"
       x="64"
       y="128"
       inkscape:export-filename="C:\Omnipocket\Development\NET\game-jam-tools\Graphics\UI\menu_preview.png"
       inkscape:export-xdpi="96"
       inkscape:export-ydpi="96" />
    <rect
       style="display:inline;fill:#000000;fill-opacity:1;fill-rule:evenodd;stroke-width:0.197531"
       id="rect890"
       width="48"
       height="48"
       x="256"
       y="128"
       inkscape:export-filename="C:\Omnipocket\Development\NET\game-jam-tools\Graphics\UI\menu_jampack.png"
       inkscape:export-xdpi="96"
       inkscape:export-ydpi="96" />
    <rect
       style="display:inline;fill:#000000;fill-opacity:1;fill-rule:evenodd;stroke-width:0.197531"
       id="rect891"
       width="48"
       height="48"
       x="64"
       y="192"
       inkscape:export-filename="C:\Omnipocket\Development\NET\game-jam-tools\Graphics\UI\menu_config.png"
       inkscape:export-xdpi="96"
       inkscape:export-ydpi="96" />
  </g>
  <g
     inkscape:label="Main"
     inkscape:groupmode="layer"
     id="layer1"
     style="display:inline">
    <path
       sodipodi:type="star"
       style="display:inline;fill:none;fill-opacity:1;stroke:#ffffff;stroke-width:1.17014;stroke-linecap:square;stroke-linejoin:miter;stroke-miterlimit:4;stroke-dasharray:none;stroke-dashoffset:3.6;stroke-opacity:1"
       id="path2095"
       inkscape:flatsided="false"
       sodipodi:sides="5"
       sodipodi:cx="524"
       sodipodi:cy="653.14691"
       sodipodi:r1="12.010412"
       sodipodi:r2="5.4061027"
       sodipodi:arg1="-1.5707963"
       sodipodi:arg2="-0.9424778"
       inkscape:rounded="0"
       inkscape:randomized="0"
       d="m 524,641.1365 3.17763,7.63678 8.24495,0.66221 -6.28107,5.382 1.91803,8.04605 -7.05954,-4.31053 -7.05954,4.31053 1.91803,-8.04605 -6.28107,-5.382 8.24495,-0.66221 z"
       inkscape:transform-center-y="-1.9601616"
       transform="matrix(1.7092678,0,0,1.7091261,-807.65633,-1090.1017)" />
    <path
       sodipodi:type="star"
       style="display:inline;fill:#ffffff;fill-opacity:1;stroke:#ffffff;stroke-width:1.17014;stroke-linecap:square;stroke-linejoin:miter;stroke-miterlimit:4;stroke-dasharray:none;stroke-dashoffset:3.6;stroke-opacity:1"
       id="path3080"
       inkscape:flatsided="false"
       sodipodi:sides="5"
       sodipodi:cx="524"
       sodipodi:cy="653.14691"
       sodipodi:r1="12.010412"
       sodipodi:r2="5.4061027"
       sodipodi:arg1="-1.5707963"
       sodipodi:arg2="-0.9424778"
       inkscape:rounded="0"
       inkscape:randomized="0"
       d="m 524,641.1365 3.17763,7.63678 8.24495,0.66221 -6.28107,5.382 1.91803,8.04605 -7.05954,-4.31053 -7.05954,4.31053 1.91803,-8.04605 -6.28107,-5.382 8.24495,-0.66221 z"
       inkscape:transform-center-y="-1.9601616"
       transform="matrix(1.7092678,0,0,1.7091261,-743.65633,-1090.1017)" />
    <path
       id="path21133"
       style="display:inline;fill:#ffffff;fill-opacity:1;stroke:none;stroke-width:0.999999px;stroke-linecap:butt;stroke-linejoin:miter;stroke-opacity:1"
       d="m 205.8457,98.61719 -3.03125,7.65039 4.63086,-1.54297 2.89649,4.24609 2.7207,-6.43164 -2.32617,-2.00195 -3.81445,0.21484 z m 20.74805,0.84961 -3.35156,0.25 -2.54297,2.84961 -1.91016,-0.62891 2.90821,6.87305 2.89453,-4.2461 4.63281,1.54493 z" />
    <path
       id="path20350"
       style="display:inline;fill:#ffffff;fill-opacity:1;stroke:none;stroke-width:0.5;stroke-linecap:square;stroke-miterlimit:4;stroke-dasharray:none;stroke-dashoffset:3.6;stroke-opacity:1"
       d="m 218.13281,68.830078 -3.09765,1.494141 -3.26368,-1.078125 -2.28906,2.566406 -3.42969,0.253906 -1.13281,3.246094 -3.07031,1.546875 0.19531,3.433594 -2.24414,2.603515 1.49219,3.097657 -1.07617,3.265625 2.56445,2.289062 0.25586,3.427734 3.24609,1.132813 1.54688,3.070313 3.43164,-0.19336 2.60547,2.244142 3.09765,-1.494142 3.26368,1.076172 2.28906,-2.564453 3.42969,-0.255859 1.13281,-3.244141 3.07031,-1.548828 -0.19531,-3.431641 2.24414,-2.605469 -1.49219,-3.095703 1.07617,-3.265625 -2.56445,-2.289062 -0.25586,-3.429688 -3.24609,-1.132812 -1.54688,-3.070313 -3.43164,0.195313 z M 216,72.429688 A 12.6,12.6 0 0 1 228.59961,85.029297 12.6,12.6 0 0 1 216,97.628906 12.6,12.6 0 0 1 203.40039,85.029297 12.6,12.6 0 0 1 216,72.429688 Z" />
    <path
       id="circle20643"
       style="display:inline;fill:#ffffff;fill-opacity:1;stroke:none;stroke-width:0.5;stroke-linecap:square;stroke-miterlimit:4;stroke-dasharray:none;stroke-dashoffset:3.6;stroke-opacity:1"
       d="M 216,74.230469 A 10.8,10.8 0 0 0 205.19922,85.029297 10.8,10.8 0 0 0 216,95.830078 10.8,10.8 0 0 0 226.80078,85.029297 10.8,10.8 0 0 0 216,74.230469 Z m 0,3.599609 2.12305,5.060547 5.50781,0.439453 -4.19531,3.566406 1.28125,5.333985 -4.7168,-2.857422 -4.7168,2.857422 1.28125,-5.333985 -4.19531,-3.566406 5.50781,-0.439453 z" />
    <rect
       style="display:inline;fill:#ffffff;fill-opacity:1;stroke-width:0.144257"
       id="rect1067"
       width="19.200001"
       height="4.8000002"
       x="78.400002"
       y="68.800003"
       rx="1.2571433"
       ry="1.2571433" />
    <rect
       style="display:inline;fill:none;fill-opacity:1;stroke:#ffffff;stroke-width:3.2;stroke-miterlimit:4;stroke-dasharray:none;stroke-opacity:1"
       id="rect1380"
       width="22.4"
       height="29.6"
       x="76.800003"
       y="76"
       rx="3.7300003"
       ry="3.8336117" />
    <path
       id="rect824"
       style="display:inline;fill:#ffffff;stroke-width:3.2"
       d="m 96.8,87.59727 c -1.607142,0 -2.666098,0.71213 -4.355468,0.33789 -1.369834,-0.30345 -2.23851,-0.5367 -3.971228,-0.45536 -1.25782,0.0591 -2.317102,0.49322 -3.610206,0.43523 -1.305072,-0.0585 -1.794492,-0.18103 -3.077978,-0.38174 -0.948324,-0.1483 -1.15559,-0.19526 -2.58512,0.0421 0.0049,4.77659 -0.0099,9.55368 0.0074,14.32996 0.05924,0.87331 0.952192,1.41217 1.769378,1.29466 4.84278,-0.005 9.686056,0.01 14.528526,-0.007 0.873316,-0.0592 1.41219,-0.95219 1.294676,-1.76938 z"
       sodipodi:nodetypes="csssscccccc" />
    <rect
       style="display:inline;fill:#ffffff;fill-opacity:1;stroke:none;stroke-width:2;stroke-linecap:square;stroke-dashoffset:3.6"
       id="rect1173"
       width="24"
       height="4"
       x="146"
       y="86" />
    <path
       id="path1451"
       style="display:inline;fill:#ffffff;fill-opacity:1;stroke:none;stroke-width:2;stroke-linecap:square;stroke-dashoffset:3.6"
       d="m 138,84 a 4,4 0 0 0 -4,4 4,4 0 0 0 4,4 4,4 0 0 0 4,-4 4,4 0 0 0 -4,-4 z m -0.10352,1.576172 c 0.23146,0 0.43311,0.03313 0.60547,0.09961 0.17483,0.06402 0.31838,0.15236 0.43164,0.265625 0.11573,0.113266 0.20314,0.244331 0.25977,0.394532 0.0566,0.1502 0.084,0.31057 0.084,0.480468 0,0.152663 -0.0139,0.304369 -0.041,0.457032 -0.0271,0.1502 -0.0832,0.314902 -0.17188,0.492187 -0.0862,0.174823 -0.21198,0.371209 -0.37695,0.587891 -0.16497,0.214219 -0.38489,0.461485 -0.6582,0.742187 l -0.75782,0.789063 h 2.08008 c 0.0197,0 0.0375,0.0072 0.0547,0.01953 0.0197,0.0098 0.0365,0.02471 0.0488,0.04687 0.0148,0.02216 0.0244,0.05146 0.0293,0.08594 0.007,0.03201 0.0117,0.07091 0.0117,0.115235 0,0.04432 -0.004,0.08272 -0.0117,0.117187 -0.005,0.03447 -0.0131,0.06327 -0.0254,0.08789 -0.01,0.02216 -0.0252,0.04042 -0.0449,0.05273 -0.0172,0.0098 -0.0364,0.01367 -0.0586,0.01367 h -2.64063 c -0.0345,0 -0.0647,-0.0024 -0.0918,-0.0098 -0.0246,-0.0098 -0.0467,-0.02522 -0.0664,-0.04492 -0.0172,-0.0197 -0.0312,-0.04705 -0.041,-0.08398 -0.007,-0.03693 -0.0117,-0.08255 -0.0117,-0.136718 0,-0.04925 0.001,-0.09392 0.004,-0.13086 0.005,-0.03693 0.0131,-0.06862 0.0254,-0.0957 0.0123,-0.02955 0.0277,-0.0569 0.0449,-0.08398 0.0197,-0.02955 0.0447,-0.05979 0.0742,-0.0918 l 0.92578,-0.982422 c 0.21422,-0.226531 0.38564,-0.431581 0.51368,-0.611328 0.1305,-0.179748 0.22988,-0.342497 0.29882,-0.490235 0.0714,-0.147737 0.11847,-0.281691 0.14063,-0.402343 0.0222,-0.120653 0.0332,-0.233965 0.0332,-0.339844 0,-0.105879 -0.0163,-0.205261 -0.0508,-0.298828 -0.0345,-0.09603 -0.0859,-0.180547 -0.15234,-0.251953 -0.064,-0.07141 -0.1437,-0.128063 -0.24219,-0.169922 -0.0985,-0.04186 -0.2118,-0.0625 -0.33984,-0.0625 -0.1502,0 -0.2856,0.02064 -0.40625,0.0625 -0.11819,0.04186 -0.22335,0.08747 -0.31446,0.136719 -0.0886,0.04924 -0.165,0.09486 -0.22656,0.136718 -0.0591,0.04186 -0.10326,0.0625 -0.13281,0.0625 -0.0172,0 -0.0321,-0.0038 -0.0469,-0.01367 -0.0123,-0.0098 -0.0234,-0.02667 -0.0332,-0.04883 -0.007,-0.02216 -0.0146,-0.05096 -0.0195,-0.08789 -0.005,-0.03693 -0.006,-0.0811 -0.006,-0.132813 0,-0.03693 -5.1e-4,-0.07057 0.002,-0.09766 0.002,-0.02708 0.007,-0.05061 0.0117,-0.07031 0.007,-0.0197 0.0155,-0.03745 0.0254,-0.05469 0.01,-0.01724 0.031,-0.03788 0.0606,-0.0625 0.0296,-0.02708 0.079,-0.0631 0.15039,-0.107422 0.0739,-0.04432 0.1651,-0.08705 0.27344,-0.128906 0.1108,-0.04432 0.23082,-0.08178 0.36133,-0.111328 0.13296,-0.02955 0.27269,-0.04297 0.41796,-0.04297 z" />
    <path
       id="circle1533"
       style="display:inline;fill:#ffffff;fill-opacity:1;stroke:none;stroke-width:2;stroke-linecap:square;stroke-dashoffset:3.6"
       d="m 138,72 a 4,4 0 0 0 -4,4 4,4 0 0 0 4,4 4,4 0 0 0 4,-4 4,4 0 0 0 -4,-4 z m 0.0977,1.59375 c 0.0591,0 0.10904,0.0029 0.14843,0.0078 0.0394,0.0049 0.0696,0.01164 0.0918,0.02148 0.0222,0.0074 0.0375,0.01843 0.0449,0.0332 0.007,0.01231 0.01,0.02624 0.01,0.04102 v 4.199218 h 0.86523 c 0.0197,0 0.0375,0.0072 0.0547,0.01953 0.0172,0.0098 0.0312,0.02471 0.041,0.04687 0.0123,0.0197 0.0205,0.04612 0.0254,0.07813 0.007,0.03201 0.0117,0.06896 0.0117,0.113281 0,0.04678 -0.004,0.08713 -0.0117,0.119141 -0.007,0.03201 -0.017,0.05843 -0.0293,0.07812 -0.0123,0.0197 -0.0277,0.03312 -0.0449,0.04297 -0.0148,0.0074 -0.0296,0.01172 -0.0469,0.01172 h -2.49609 c -0.0172,0 -0.0341,-0.0043 -0.0488,-0.01172 -0.0148,-0.0098 -0.0301,-0.02327 -0.0449,-0.04297 -0.0123,-0.0197 -0.0219,-0.04612 -0.0293,-0.07812 -0.007,-0.03201 -0.0117,-0.07236 -0.0117,-0.119141 0,-0.04432 0.004,-0.08127 0.0117,-0.113281 0.007,-0.03201 0.0155,-0.05843 0.0254,-0.07813 0.0123,-0.02216 0.0262,-0.03703 0.041,-0.04687 0.0172,-0.01231 0.0369,-0.01953 0.0566,-0.01953 h 0.99609 v -3.634765 l -0.92383,0.550781 c -0.0468,0.02462 -0.0837,0.04 -0.11328,0.04492 -0.0271,0.0049 -0.0492,-8.51e-4 -0.0664,-0.01563 -0.0172,-0.01724 -0.0297,-0.04314 -0.0371,-0.08008 -0.005,-0.03693 -0.008,-0.08399 -0.008,-0.140625 0,-0.04186 10e-4,-0.07788 0.004,-0.107422 0.005,-0.02955 0.0102,-0.05452 0.0176,-0.07422 0.007,-0.0197 0.017,-0.03601 0.0293,-0.05078 0.0148,-0.01477 0.0345,-0.03015 0.0566,-0.04492 l 1.09961,-0.705078 c 0.01,-0.0074 0.0223,-0.01461 0.0371,-0.01953 0.0148,-0.0049 0.0345,-0.0087 0.0566,-0.01367 0.0222,-0.0049 0.0466,-0.0078 0.0762,-0.0078 0.0296,-0.0025 0.067,-0.0039 0.11133,-0.0039 z" />
    <path
       id="circle1535"
       style="display:inline;fill:#ffffff;fill-opacity:1;stroke:none;stroke-width:2;stroke-linecap:square;stroke-dashoffset:3.6"
       d="m 138,96 a 4,4 0 0 0 -4,4 4,4 0 0 0 4,4 4,4 0 0 0 4,-4 4,4 0 0 0 -4,-4 z m -0.0606,1.541016 c 0.22161,0 0.41655,0.02735 0.58399,0.08398 0.16743,0.05663 0.30521,0.136818 0.41601,0.240234 0.11327,0.103417 0.19779,0.227772 0.25196,0.373047 0.0566,0.142813 0.084,0.30174 0.084,0.476563 0,0.1502 -0.0192,0.28942 -0.0586,0.419922 -0.0394,0.128039 -0.0975,0.242795 -0.17383,0.34375 -0.0763,0.09849 -0.16849,0.184452 -0.2793,0.255859 -0.1108,0.06894 -0.23949,0.117446 -0.38476,0.144531 v 0.0059 c 0.16497,0.01724 0.31574,0.06047 0.45117,0.126958 0.13789,0.064 0.25502,0.14369 0.35351,0.24219 0.0985,0.0985 0.17435,0.21469 0.22852,0.34765 0.0566,0.1305 0.0859,0.27168 0.0859,0.42188 0,0.21914 -0.0389,0.41646 -0.11524,0.59375 -0.0763,0.17482 -0.18531,0.32559 -0.32812,0.45117 -0.14282,0.12558 -0.32,0.22207 -0.5293,0.29102 -0.20929,0.0665 -0.44552,0.0996 -0.70898,0.0996 -0.16005,0 -0.30887,-0.012 -0.44922,-0.0391 -0.13789,-0.0246 -0.2608,-0.0554 -0.36914,-0.0898 -0.10834,-0.0369 -0.19813,-0.0724 -0.26953,-0.10938 -0.0714,-0.0394 -0.11702,-0.0687 -0.13672,-0.0859 -0.0172,-0.0172 -0.0312,-0.0336 -0.041,-0.0508 -0.01,-0.0172 -0.018,-0.0398 -0.0254,-0.0644 -0.007,-0.0246 -0.0146,-0.0534 -0.0195,-0.0879 -0.002,-0.0369 -0.004,-0.0811 -0.004,-0.13281 0,-0.0886 0.008,-0.15108 0.0254,-0.18555 0.0172,-0.0345 0.0422,-0.0508 0.0742,-0.0508 0.0222,0 0.0649,0.0192 0.12891,0.0586 0.0665,0.0394 0.151,0.0821 0.25195,0.12891 0.10342,0.0443 0.222,0.0876 0.35742,0.12695 0.13789,0.0394 0.29155,0.0586 0.45899,0.0586 0.16251,0 0.30462,-0.0206 0.42773,-0.0625 0.12312,-0.0419 0.22683,-0.10141 0.31055,-0.17774 0.0837,-0.0763 0.14759,-0.16611 0.18945,-0.26953 0.0419,-0.10588 0.0625,-0.22063 0.0625,-0.34375 0,-0.13543 -0.0279,-0.25689 -0.082,-0.36523 -0.0517,-0.10834 -0.129,-0.20246 -0.23242,-0.28125 -0.10095,-0.0788 -0.22675,-0.13978 -0.37695,-0.18164 -0.14774,-0.0419 -0.31627,-0.0625 -0.50586,-0.0625 h -0.45508 c -0.0197,0 -0.0389,-0.002 -0.0586,-0.01 -0.0172,-0.01 -0.0321,-0.0252 -0.0469,-0.0449 -0.0123,-0.0197 -0.0233,-0.0461 -0.0332,-0.0781 -0.007,-0.032 -0.0117,-0.07329 -0.0117,-0.125 0,-0.04678 0.004,-0.08569 0.0117,-0.115235 0.007,-0.03201 0.017,-0.05503 0.0293,-0.07227 0.0148,-0.0197 0.0296,-0.03363 0.0469,-0.04102 0.0172,-0.0098 0.0384,-0.01563 0.0606,-0.01563 h 0.41601 c 0.16251,0 0.30751,-0.02064 0.43555,-0.0625 0.1305,-0.04186 0.24143,-0.102847 0.33008,-0.181641 0.0911,-0.07879 0.16024,-0.170955 0.20703,-0.279296 0.0492,-0.110804 0.0723,-0.233715 0.0723,-0.369141 0,-0.09849 -0.0149,-0.192607 -0.0469,-0.28125 -0.032,-0.0911 -0.0805,-0.169846 -0.14453,-0.236328 -0.064,-0.06648 -0.1471,-0.119316 -0.24805,-0.15625 -0.0985,-0.0394 -0.2113,-0.05859 -0.3418,-0.05859 -0.14281,0 -0.27583,0.02209 -0.39648,0.06641 -0.11819,0.04186 -0.22284,0.08747 -0.31641,0.136719 -0.0936,0.04925 -0.17282,0.0963 -0.23437,0.140625 -0.0616,0.04186 -0.10429,0.0625 -0.12891,0.0625 -0.0172,0 -0.0321,-0.0029 -0.0469,-0.0078 -0.0123,-0.0074 -0.0234,-0.01987 -0.0332,-0.03711 -0.007,-0.0197 -0.0146,-0.04416 -0.0195,-0.07617 -0.002,-0.03447 -0.004,-0.07864 -0.004,-0.132812 0,-0.03693 0.001,-0.07057 0.004,-0.09766 0.002,-0.02955 0.008,-0.05257 0.0156,-0.07227 0.007,-0.02216 0.0155,-0.04331 0.0254,-0.06055 0.01,-0.01724 0.0267,-0.03643 0.0488,-0.05859 0.0246,-0.02462 0.0712,-0.05919 0.14257,-0.103515 0.0714,-0.04432 0.16026,-0.08705 0.26368,-0.128907 0.10587,-0.04432 0.2259,-0.08178 0.36132,-0.111328 0.13789,-0.02955 0.28578,-0.04297 0.44336,-0.04297 z" />
    <rect
       style="display:inline;fill:#ffffff;fill-opacity:1;stroke:none;stroke-width:2;stroke-linecap:square;stroke-dashoffset:3.6"
       id="rect21948"
       width="24"
       height="4"
       x="146"
       y="74" />
    <rect
       style="display:inline;fill:#ffffff;fill-opacity:1;stroke:none;stroke-width:2;stroke-linecap:square;stroke-dashoffset:3.6"
       id="rect21950"
       width="24"
       height="4"
       x="146"
       y="98" />
    <path
       id="rect1065"
       style="display:inline;fill:#ffffff;stroke-width:3.55932;stroke-opacity:0.7"
       d="m 265,70 v 36 h 28 v -4 h -2 v 2 H 267 V 72 h 16 v 8 h 2 6 v 8 h 2 v -8 -2 -1 l -7,-7 h -1 -2 z m 20,2 6,6 h -6 z"
       sodipodi:nodetypes="ccccccccccccccccccccccccc" />
    <path
       id="rect2057"
       style="display:inline;fill:#ffffff;fill-opacity:1;stroke:none;stroke-width:4.76676;stroke-opacity:0.7"
       d="m 295,88 v 4 h -10 v 6 h 10 v 4 l 8,-7 z" />
    <rect
       style="display:inline;fill:#ffffff;fill-opacity:1;stroke:none;stroke-width:2;stroke-linecap:square;stroke-dashoffset:3.6"
       id="rect854"
       width="24"
       height="4"
       x="146"
       y="150" />
    <path
       style="display:inline;fill:#ffffff;fill-opacity:1;stroke:none;stroke-width:2;stroke-linecap:square;stroke-dashoffset:3.6"
       d="m 138,136 a 4,4 0 0 0 -4,4 4,4 0 0 0 4,4 4,4 0 0 0 4,-4 4,4 0 0 0 -4,-4 z"
       id="path858" />
    <rect
       style="display:inline;fill:#ffffff;fill-opacity:1;stroke:none;stroke-width:2;stroke-linecap:square;stroke-dashoffset:3.6"
       id="rect862"
       width="24"
       height="4"
       x="146"
       y="138" />
    <rect
       style="display:inline;fill:#ffffff;fill-opacity:1;stroke:none;stroke-width:2;stroke-linecap:square;stroke-dashoffset:3.6"
       id="rect864"
       width="24"
       height="4"
       x="146"
       y="162" />
    <path
       style="display:inline;fill:#ffffff;fill-opacity:1;stroke:none;stroke-width:2;stroke-linecap:square;stroke-dashoffset:3.6"
       d="m 138,148 a 4,4 0 0 0 -4,4 4,4 0 0 0 4,4 4,4 0 0 0 4,-4 4,4 0 0 0 -4,-4 z"
       id="path1128" />
    <path
       style="display:inline;fill:#ffffff;fill-opacity:1;stroke:none;stroke-width:2;stroke-linecap:square;stroke-dashoffset:3.6"
       d="m 138,160 a 4,4 0 0 0 -4,4 4,4 0 0 0 4,4 4,4 0 0 0 4,-4 4,4 0 0 0 -4,-4 z"
       id="path1130" />
    <path
       id="path1448"
       style="display:inline;fill:#ffffff;stroke-width:3.55932;stroke-opacity:0.7"
       d="m 206,133 v 7 h 2 v -5 h 14 v 8 h 2 6 v 8 h 2 v -4 -4 -2 -1 l -7,-7 h -1 -2 z m 18,2 6,6 h -6 z" />
    <path
       id="rect2212"
       style="fill:#ffffff;fill-opacity:1;stroke-width:9;stroke-linecap:round;stroke-linejoin:round;stroke-dashoffset:3.6"
       d="m 223,149 v 2 h 11 v 16 h -11 v 2 h 13 v -20 z" />
    <path
       sodipodi:type="star"
       style="fill:#ffffff;fill-opacity:1;stroke-width:12.7473;stroke-linecap:round;stroke-linejoin:round;stroke-dashoffset:3.6"
       id="path2426"
       inkscape:flatsided="true"
       sodipodi:sides="3"
       sodipodi:cx="211.5"
       sodipodi:cy="155.625"
       sodipodi:r1="9.6258116"
       sodipodi:r2="4.8129058"
       sodipodi:arg1="0"
       sodipodi:arg2="1.0471976"
       inkscape:rounded="0"
       inkscape:randomized="0"
       inkscape:transform-center-x="-1.666669"
       transform="matrix(0.69258229,0,0,0.71975263,62.852159,43.988497)"
       d="m 221.12581,155.625 -14.43872,8.3362 v -16.6724 z" />
    <path
       id="path1176"
       style="display:inline;fill:#ffffff;stroke-width:3.55932;stroke-opacity:0.7"
       d="m 198,139 v 32 h 26 v -18 h -2 v 16 h -22 v -28 h 14 v 8 h 2 6 v 10 h 2 v -10 -2 -1 l -7,-7 h -1 -2 z m 18,2 6,6 h -6 z"
       sodipodi:nodetypes="ccccccccccccccccccccccccc" />
    <path
       style="fill:#ffffff;fill-opacity:1;stroke:none;stroke-width:1px;stroke-linecap:butt;stroke-linejoin:miter;stroke-opacity:1"
       d="m 223.625,159.625 2.375,-2.375 4.8125,4.8125 3.8125,-3.8125 v 9.625 H 223.5 Z"
       id="path2937"
       sodipodi:nodetypes="ccccccc" />
    <circle
       style="fill:#ffffff;fill-opacity:1;stroke:none;stroke-width:8.99997;stroke-linecap:round;stroke-linejoin:round;stroke-dashoffset:3.6"
       id="path3027"
       cx="230"
       cy="155"
       r="2" />
    <path
       id="rect1029"
       style="fill:#ffffff;stroke-width:9;stroke-linecap:round;stroke-linejoin:round;stroke-dashoffset:3.6"
       d="m 135,198 v 36 h 34 v -30 l -6,-6 z m 2,2 h 25 l 5,5 v 27 h -30 z" />
    <path
       id="rect2255"
       style="fill:#ffffff;fill-opacity:1;stroke-width:9;stroke-linecap:round;stroke-linejoin:round;stroke-dashoffset:3.6"
       d="m 140,218 v 16 h 24 v -16 z m 2,2 h 20 v 12 h -20 z" />
    <rect
       style="fill:#ffffff;fill-opacity:1;stroke-width:8.99996;stroke-linecap:round;stroke-linejoin:round;stroke-dashoffset:3.6"
       id="rect2465"
       width="12"
       height="2"
       x="146"
       y="223" />
    <rect
       style="fill:#ffffff;fill-opacity:1;stroke-width:8.99996;stroke-linecap:round;stroke-linejoin:round;stroke-dashoffset:3.6"
       id="rect2521"
       width="12"
       height="2"
       x="146"
       y="227" />
    <path
       id="rect2579"
       style="fill:#ffffff;fill-opacity:1;stroke-width:8.99999;stroke-linecap:round;stroke-linejoin:round;stroke-dashoffset:3.6"
       d="m 144,198 v 12 h 16 v -12 z m 2,2 h 12 v 8 h -12 z" />
    <rect
       style="fill:#ffffff;fill-opacity:1;stroke-width:8.99998;stroke-linecap:round;stroke-linejoin:round;stroke-dashoffset:3.6"
       id="rect2637"
       width="2"
       height="4"
       x="154"
       y="202" />
    <circle
       style="fill:#ffffff;fill-opacity:1;stroke-width:9;stroke-linecap:round;stroke-linejoin:round;stroke-dashoffset:3.6"
       id="path3263"
       cx="232"
       cy="232"
       r="6" />
    <path
       style="fill:#ffffff;fill-opacity:1;stroke:none;stroke-width:1px;stroke-linecap:butt;stroke-linejoin:miter;stroke-opacity:1"
       d="m 200,21 11,18 h 10 L 232,13 225,9 215.5,31 207,17 Z"
       id="path1051"
       sodipodi:nodetypes="cccccccc" />
    <rect
       style="opacity:1;fill:#ffffff;fill-opacity:1;stroke:none;stroke-width:1.99937;stroke-linecap:square"
       id="rect3544"
       width="36"
       height="8"
       x="163.01933"
       y="210.96046"
       transform="rotate(-45)" />
    <rect
       style="opacity:1;fill:#ffffff;fill-opacity:1;stroke:none;stroke-width:1.99937;stroke-linecap:square"
       id="rect3870"
       width="36"
       height="8"
       x="-232.96046"
       y="177.01933"
       transform="rotate(-135)" />
    <path
       id="path4106"
       style="opacity:1;fill:#ffffff;fill-opacity:1;stroke:none;stroke-width:1.99937;stroke-linecap:square"
       d="M 344 14 A 10 10 0 0 0 334 24 A 10 10 0 0 0 344 34 A 10 10 0 0 0 354 24 A 10 10 0 0 0 344 14 z M 344 19 A 5 5 0 0 1 349 24 A 5 5 0 0 1 344 29 A 5 5 0 0 1 339 24 A 5 5 0 0 1 344 19 z " />
    <rect
       style="display:inline;fill:#ffffff;fill-opacity:1;stroke-width:0.144257"
       id="rect892"
       width="19.200001"
       height="4.8000002"
       x="270.39999"
       y="132.8"
       rx="1.2571433"
       ry="1.2571433" />
    <rect
       style="display:inline;fill:none;fill-opacity:1;stroke:#ffffff;stroke-width:3.2;stroke-miterlimit:4;stroke-dasharray:none;stroke-opacity:1"
       id="rect894"
       width="22.4"
       height="29.6"
       x="268.79999"
       y="140"
       rx="3.7300003"
       ry="3.8336117" />
    <path
       id="path978"
       style="display:inline;fill:#ffffff;fill-opacity:1;stroke:none;stroke-width:4.76676;stroke-opacity:0.7"
       d="m 284.99999,151.7 h -3.00001 V 145 h -4 v 6.7 h -2.99999 l 5,6.8 z"
       sodipodi:nodetypes="cccccccc" />
    <path
       id="path1082"
       style="fill:#ffffff;fill-opacity:1;stroke-width:1.99937;stroke-linecap:square"
       d="M 87.988281 141.51562 C 80.988245 141.53553 74.436061 145.44859 70.433594 152 C 74.436437 158.55067 80.988558 162.46489 87.988281 162.48438 C 95.003119 162.46527 101.56611 158.53464 105.56641 151.96094 C 101.55133 145.41613 94.990813 141.51738 87.988281 141.51562 z M 87.894531 143.51562 C 94.116839 143.51934 98.92599 146.60349 103 151.96875 C 98.93618 157.35726 94.219336 160.4806 87.988281 160.5 C 81.769792 160.48069 77.063566 157.36984 73 152 C 77.063566 146.63016 81.676041 143.53493 87.894531 143.51562 z " />
    <path
       id="path1536"
       style="fill:#ffffff;fill-opacity:1;stroke-width:1.99937;stroke-linecap:square"
       d="M 88 145.00781 A 7 7 0 0 0 81 152.00781 A 7 7 0 0 0 88 159.00781 A 7 7 0 0 0 95 152.00781 A 7 7 0 0 0 88 145.00781 z M 87.642578 147.02148 A 5 5 0 0 1 91.535156 148.47266 A 5 5 0 0 1 91.535156 155.54297 A 5 5 0 0 1 84.464844 155.54297 A 5 5 0 0 1 84.464844 148.47266 A 5 5 0 0 1 87.642578 147.02148 z " />
    <circle
       style="fill:#ffffff;fill-opacity:1;stroke-width:1.99937;stroke-linecap:square"
       id="circle2524"
       cy="41.854099"
       cx="169.71117"
       r="1.46875"
       transform="rotate(45)" />
    <path
       id="path4913"
       style="display:inline;fill:#ffffff;fill-opacity:1;stroke-width:3.2"
       d="m 288.8,161 h -17.6 c 0.005,4.77659 -0.01,0.12907 0.007,4.90535 0.0592,0.87331 0.95219,1.41217 1.76938,1.29466 4.84278,-0.005 9.68605,0.01 14.52852,-0.007 0.87332,-0.0592 1.41219,-0.95219 1.29468,-1.76938 z"
       sodipodi:nodetypes="ccccccc" />
    <path
       id="path1007"
       style="display:inline;fill:#ffffff;fill-opacity:1;stroke-width:8;stroke-linecap:square"
       d="M 88,200 A 16,16 0 0 0 84.675781,200.39062 5,5 0 0 1 82.5,206.47461 5,5 0 0 1 76.154297,205.27539 16,16 0 0 0 72.804688,211.07031 5,5 0 0 1 77,216 a 5,5 0 0 1 -4.207031,4.89648 16,16 0 0 0 3.357422,5.82422 5,5 0 0 1 3.611328,-1.85937 5,5 0 0 1 2.738281,0.66406 5,5 0 0 1 2.175781,6.08399 A 16,16 0 0 0 88,232 16,16 0 0 0 91.357422,231.60156 5,5 0 0 1 93.5,225.52539 a 5,5 0 0 1 2.738281,-0.66406 5,5 0 0 1 3.611328,1.85937 16,16 0 0 0 3.357421,-5.82422 A 5,5 0 0 1 99,216 5,5 0 0 1 103.22656,211.10156 16,16 0 0 0 99.857422,205.25977 5,5 0 0 1 93.5,206.47461 5,5 0 0 1 91.371094,200.36328 16,16 0 0 0 88,200 Z m 0,11 a 5,5 0 0 1 5,5 5,5 0 0 1 -5,5 5,5 0 0 1 -5,-5 5,5 0 0 1 5,-5 z" />
  </g>
</svg>
